# xmcd
#
# Track frame offsets: 
#        150
#        22000
#        36166
#        53989
#        70335
#        90457
#        109304
#        126082
#        144727
#        169781
#
# Disc length: 2504 seconds
#
# Revision: 0
# Processed by: cddbd v1.5.2PL0 Copyright (c) Steve Scherf et al.
# Submitted via: ExactAudioCopy v1.0b4
#
DISCID=8e09c60a
DTITLE=Sonny Landreth - Bound By The Blues
DYEAR=2015
DGENRE=Blues, Blues Rock
TTITLE0=Walkin' Blues
TTITLE1=Bound By The Blues
TTITLE2=The High Side
TTITLE3=It Hurt Me Too
TTITLE4=Where They Will
TTITLE5=Charry Ball Blues
TTITLE6=Firebird Blues
TTITLE7=Dust My Broom
TTITLE8=Key To The Highway
TTITLE9=Simcoe Street
EXTD=
EXTT0=
EXTT1=
EXTT2=
EXTT3=
EXTT4=
EXTT5=
EXTT6=
EXTT7=
EXTT8=
EXTT9=
PLAYORDER=
